<svg width="19" height="15" viewBox="0 0 19 15" fill="none" xmlns="http://www.w3.org/2000/svg">
<path opacity="0.6" d="M13.3297 4.58457C13.0144 4.40653 12.609 4.40653 12.2487 4.58457L9.72624 6.05341L8.01459 6.98813L5.53719 8.45697C5.22188 8.63501 4.81649 8.63501 4.45614 8.45697L2.51927 7.2997C2.20396 7.12166 1.97875 6.76558 1.97875 6.36498V4.13947C1.97875 3.78338 2.15892 3.4273 2.51927 3.20475L4.45614 2.09199C4.77145 1.91395 5.17684 1.91395 5.53719 2.09199L7.47406 3.24926C7.78937 3.4273 8.01459 3.78338 8.01459 4.18398V5.65282L9.72624 4.67359V3.16024C9.72624 2.80415 9.54607 2.44807 9.18572 2.22552L5.58223 0.133531C5.26693 -0.0445104 4.86154 -0.0445104 4.50119 0.133531L0.807613 2.27003C0.447264 2.44807 0.26709 2.80415 0.26709 3.16024V7.34421C0.26709 7.7003 0.447264 8.05638 0.807613 8.27893L4.45614 10.3709C4.77145 10.549 5.17684 10.549 5.53719 10.3709L8.01459 8.94659L9.72624 7.96736L12.2036 6.54303C12.5189 6.36499 12.9243 6.36499 13.2847 6.54303L15.2216 7.65579C15.5369 7.83383 15.7621 8.18991 15.7621 8.5905V10.816C15.7621 11.1721 15.5819 11.5282 15.2216 11.7507L13.3297 12.8635C13.0144 13.0415 12.609 13.0415 12.2487 12.8635L10.3118 11.7507C9.9965 11.5727 9.77129 11.2166 9.77129 10.816V9.39169L8.05963 10.3709V11.8398C8.05963 12.1958 8.2398 12.5519 8.60015 12.7745L12.2487 14.8665C12.564 15.0445 12.9694 15.0445 13.3297 14.8665L16.9783 12.7745C17.2936 12.5964 17.5188 12.2404 17.5188 11.8398V7.61128C17.5188 7.25519 17.3386 6.89911 16.9783 6.67656L13.3297 4.58457Z" fill="#76808D"/>
</svg>
